<?xml version="1.0" encoding="utf-8"?>
<svg xmlns="http://www.w3.org/2000/svg" xml:space="preserve" viewBox="0 0 32 33">
  <path fill="#9fef00" d="M29.6 9.3c0-.3-.1-.6-.4-.8l-.1-.1s-.1 0-.1-.1L16.6 1.2h-.1c-.2-.2-.4-.2-.6-.2-.1 0-.2 0-.3.1-.1 0-.1.1-.2.1L3 8.3c-.2.1-.2.2-.3.3-.2.2-.3.4-.3.7v14.3c0 .4.2.8.6 1l12.4 7.2h.1c.1 0 .1.1.2.1h.4c.1 0 .1 0 .2-.1h.1L29 24.7c.4-.2.6-.6.6-1V9.3c0 .1 0 0 0 0zM7.3 8.9 15.7 4c.2-.1.4-.1.5 0l8.4 4.9c.4.2.4.7 0 .9l-8.4 4.9c-.2.1-.4.1-.5 0L7.3 9.8c-.4-.2-.4-.7 0-.9zm7.2 18.5c0 .4-.4.7-.8.5L5.3 23c-.2-.1-.3-.3-.3-.5v-9.7c0-.4.4-.7.8-.5l8.4 4.9c.2.1.3.3.3.5v9.7zM27 22.5c0 .2-.1.4-.3.5l-8.4 4.9c-.4.2-.8-.1-.8-.5v-9.7c0-.2.1-.4.3-.5l8.4-4.9c.4-.2.8.1.8.5v9.7z"/>
</svg>